<?xml version="1.0" encoding="iso-8859-1"?>
<!-- Generator: Adobe Illustrator 16.0.0, SVG Export Plug-In . SVG Version: 6.00 Build 0)  -->
<!DOCTYPE svg PUBLIC "-//W3C//DTD SVG 1.1//EN" "http://www.w3.org/Graphics/SVG/1.1/DTD/svg11.dtd">
<svg version="1.1" id="Capa_1" xmlns="http://www.w3.org/2000/svg" xmlns:xlink="http://www.w3.org/1999/xlink" x="0px" y="0px"
	 width="107.112px" height="107.112px" viewBox="0 0 107.112 107.112" style="enable-background:new 0 0 107.112 107.112;"
	 xml:space="preserve">
<g>
	<path d="M53.556,107.112C24.025,107.112,0,83.087,0,53.556S24.025,0,53.556,0s53.556,24.025,53.556,53.556
		S83.087,107.112,53.556,107.112z M53.556,0.75C24.439,0.75,0.75,24.439,0.75,53.556c0,29.118,23.689,52.806,52.806,52.806
		c29.118,0,52.806-23.688,52.806-52.806C106.362,24.439,82.674,0.75,53.556,0.75z"/>
	<path d="M53.556,107.112C24.025,107.112,0,83.087,0,53.556S24.025,0,53.556,0s53.556,24.025,53.556,53.556
		S83.087,107.112,53.556,107.112z M53.556,0.75C24.439,0.75,0.75,24.439,0.75,53.556c0,29.118,23.689,52.806,52.806,52.806
		c29.118,0,52.806-23.688,52.806-52.806C106.362,24.439,82.674,0.75,53.556,0.75z"/>
</g>
<g>
</g>
<g>
</g>
<g>
</g>
<g>
</g>
<g>
</g>
<g>
</g>
<g>
</g>
<g>
</g>
<g>
</g>
<g>
</g>
<g>
</g>
<g>
</g>
<g>
</g>
<g>
</g>
<g>
</g>
</svg>
